# AST/ASF file generated using VICON BodyLanguage
# -----------------------------------------------
:version 1.10
:name VICON
:units
  mass 1.0
  length 0.45
  angle deg
:documentation
   .ast/.asf automatically generated from VICON data using
   VICON BodyBuilder and BodyLanguage model FoxedUp or BRILLIANT.MOD
:root
   order TX TY TZ RX RY RZ
   axis XYZ
   position 0 0 0  
   orientation 0 0 0 
:bonedata
  begin
     id 1 
     name lhipjoint
     direction 0.711131 -0.61297 0.344326 
     length 2.29162 
     axis 0 0 0  XYZ
  end
  begin
     id 2 
     name lfemur
     direction 0.34202 -0.939693 0  
     length 6.71424  
     axis 0 0 20  XYZ
    dof rx ry rz
    limits (-160.0 20.0)
           (-70.0 70.0)
           (-60.0 70.0)
  end
  begin
     id 3 
     name ltibia
     direction 0.34202 -0.939693 0   
     length 6.7087   
     axis 0 0 20   XYZ
    dof rx
    limits (-10.0 170.0)
  end
  begin
     id 4 
     name lfoot
     direction 0.0230374 -0.0632947 0.997729   
     length 1.56743   
     axis -90 7.62852e-016 20   XYZ
    dof rx rz
    limits (-45.0 90.0)
           (-70.0 20.0)
  end
  begin
     id 5 
     name ltoes
     direction 1.53585e-011 -4.21885e-011 1   
     length 0.802914   
     axis -90 7.62852e-016 20   XYZ
    dof rx
    limits (-90.0 20.0)
  end
  begin
     id 6 
     name rhipjoint
     direction -0.733192 -0.592884 0.333043   
     length 2.36925  
     axis 0 0 0  XYZ 
  end
  begin
     id 7 
     name rfemur
     direction -0.34202 -0.939693 0   
     length 6.67027   
     axis 0 0 -20   XYZ
    dof rx ry rz
    limits (-160.0 20.0)
           (-70.0 70.0)
           (-70.0 60.0)
  end
  begin
     id 8 
     name rtibia
     direction -0.34202 -0.939693 0   
     length 6.6862   
     axis 0 0 -20   XYZ
    dof rx
    limits (-10.0 170.0)
 end
 begin
     id 9 
     name rfoot
     direction -0.0949739 -0.260939 0.960672   
     length 1.67698  
     axis -90 -7.62852e-016 -20   XYZ
    dof rx rz
    limits (-45.0 90.0)
           (-20.0 70.0)
  end
  begin
     id 10 
     name rtoes
     direction -1.5353e-011 -4.21868e-011 1   
     length 0.846298   
     axis -90 -7.62852e-016 -20   XYZ
    dof rx
    limits (-90.0 20.0)
  end
  begin
     id 11 
     name lowerback
     direction -0.0206828 0.999785 -0.00109866   
     length 2.04382   
     axis 0 0 0   XYZ
    dof rx ry rz
    limits (-20.0 45.0)
           (-30.0 30.0)
           (-30.0 30.0)
  end
  begin
     id 12 
     name upperback
     direction -0.0105003 0.999727 -0.0208904   
     length 2.04538   
     axis 0 0 0   XYZ
    dof rx ry rz
    limits (-20.0 45.0)
           (-30.0 30.0)
           (-30.0 30.0)
  end
  begin
     id 13 
     name thorax
     direction -0.000416255 0.999808 -0.0196023   
     length 2.0399   
     axis 0 0 0   XYZ
    dof rx ry rz
    limits (-20.0 45.0)
           (-30.0 30.0)
           (-30.0 30.0)
  end
  begin
     id 14 
     name lowerneck
     direction 0.0627861 0.989205 0.13241   
     length 1.46207   
     axis 0 0 0   XYZ
    dof rx ry rz
    limits (-20.0 45.0)
           (-30.0 30.0)
           (-30.0 30.0)
  end
  begin
     id 15 
     name upperneck
     direction 0.00627179 0.994526 0.104303   
     length 1.41419   
     axis 0 0 0   XYZ
    dof rx ry rz
    limits (-20.0 45.0)
           (-30.0 30.0)
           (-30.0 30.0)
  end
  begin
     id 16
     name head
     direction -0.00443838 0.999688 0.0245968  
     length 1.50718  
     axis 0 0 0   XYZ
    dof rx ry rz
    limits (-20.0 45.0)
           (-30.0 30.0)
           (-30.0 30.0)
  end
  begin
     id 17 
     name lclavicle
     direction 0.758742 0.650995 -0.0227258  
     length 2.86888  
     axis 0 0 0   XYZ
    dof ry rz
    limits (-20.0 10.0)
           (0.0 20.0)
  end
  begin
     id 18 
     name lhumerus
     direction 1 -4.48962e-011 1.06664e-027   
     length 4.65776   
     axis -180 -30 -90   XYZ
    dof rx ry rz
    limits (-60.0 90.0)
           (-90.0 90.0)
           (-90.0 90.0)
  end
  begin
     id 19
     name lradius
     direction 1 -4.48968e-011 1.40404e-026   
     length 3.55539   
     axis -180 -30 -90   XYZ
    dof rx
    limits (-10.0 170.0)
  end
  begin
     id 20
     name lwrist
     direction 1 -4.48976e-011 3.32647e-026   
     length 1.77769   
     axis -2.20186e-014 90 90   XYZ
    dof ry
    limits (-180.0 0.0)
 end
  begin
     id 21 
     name lhand
     direction 1 -4.48982e-011 6.65293e-026   
     length 0.707264   
     axis -4.24514e-014 90 90   XYZ
    dof rx rz
    limits (-90.0 90.0)
           (-45.0 45.0)
  end
  begin
     id 22 
     name lfingers
     direction 1 -4.48966e-011 1.33059e-025   
     length 0.570215   
     axis -8.49028e-014 90 90   XYZ
    dof rx
    limits (0.0 90.0)
  end
  begin
     id 23
     name lthumb
     direction 0.707107 -6.3493e-011 0.707107   
     length 0.818718   
     axis -90 45 2.85299e-015   XYZ
    dof rx rz
    limits (-45.0 45.0)
           (-45.0 45.0)
  end
  begin
     id 24 
     name rclavicle
     direction -0.870343 0.482028 -0.100759   
     length 3.2251  
     axis 0 0 0   XYZ 
    dof ry rz
    limits (-10.0 20.0)
           (-20.0 0.0)
  end
  begin
     id 25 
     name rhumerus
     direction -1 -4.48974e-011 -9.45849e-028  
     length 4.71925   
     axis -180 30 90   XYZ
    dof rx ry rz
    limits (-90.0 60.0)
           (-90.0 90.0)
           (-90.0 90.0)
  end
  begin
     id 26 
     name rradius
     direction -1 -4.48965e-011 1.17607e-026   
     length 3.5699   
     axis -180 30 90   XYZ
    dof rx
    limits (-10.0 170.0)
  end
  begin
     id 27 
     name rwrist
     direction -1 -4.48968e-011 3.32647e-026   
     length 1.78495   
     axis -2.20186e-014 -90 -90   XYZ
    dof ry
    limits (-180.0 0.0)
  end
  begin
     id 28
     name rhand
     direction -1 -4.48995e-011 6.65293e-026   
     length 0.507757   
     axis -4.24514e-014 -90 -90   XYZ
    dof rx rz
    limits (-90.0 90.0)
           (-45.0 45.0)
  end
  begin
     id 29
     name rfingers
     direction -1 -4.48864e-011 1.33059e-025   
     length 0.409367   
     axis -8.49028e-014 -90 -90   XYZ
    dof rx
    limits (0.0 90.0)
  end
  begin
     id 30
     name rthumb
     direction -0.707107 -6.3494e-011 0.707107   
     length 0.587771   
     axis -90 -45 -2.85299e-015   XYZ
    dof rx rz
    limits (-45.0 45.0)
           (-45.0 45.0)
  end
:hierarchy
  begin
    root lhipjoint rhipjoint lowerback
    lhipjoint lfemur
    lfemur ltibia
    ltibia lfoot
    lfoot ltoes
    rhipjoint rfemur
    rfemur rtibia
    rtibia rfoot
    rfoot rtoes
    lowerback upperback
    upperback thorax
    thorax lowerneck lclavicle rclavicle
    lowerneck upperneck
    upperneck head
    lclavicle lhumerus
    lhumerus lradius
    lradius lwrist
    lwrist lhand lthumb
    lhand lfingers
    rclavicle rhumerus
    rhumerus rradius
    rradius rwrist
    rwrist rhand rthumb
    rhand rfingers
  end

#!OML:ASF E:\Steps\Project 1\Capture day 1\Session 2\Subject.ASF
:FULLY-SPECIFIED
:DEGREES
32
root 9.0846 16.3287 9.33295 -153.091 -3.10202 -179.243
lowerback -29.9891 -1.65824 -5.24597
upperback -3.17902 -1.45251 -0.0926916
thorax 12.2661 -1.33798 2.10119
lowerneck 1.78278 -3.90371 -1.14024
upperneck -11.5077 -5.33328 5.3092
head -3.89142 -3.04602 2.18977
rclavicle 1.19271e-014 -2.3059e-014
rhumerus -33.4967 -18.1601 -80.7319
rradius 27.8239
rwrist -0.44993
rhand -6.86636 -51.6625
rfingers 7.12502
rthumb 18.9993 -80.7546
lclavicle 1.19271e-014 -2.3059e-014
lhumerus -27.8255 3.74863 84.2517
lradius 19.0083
lwrist -6.57746
lhand -21.8065 -12.6311
lfingers 7.12502
lthumb 4.59558 17.299
rfemur -26.0437 9.83491 17.1725
rtibia 9.59545
rfoot -19.6502 -7.55609
rtoes -40.4942
lfemur -24.6143 -9.4618 -17.4182
ltibia 7.44452
lfoot -8.27668 4.18134
ltoes -42.1335
33
root 9.08392 16.3298 9.33425 -153.098 -3.11351 -179.218
lowerback -30.0232 -1.66387 -5.20032
upperback -3.15637 -1.46963 -0.0885698
thorax 12.3079 -1.34353 2.07349
lowerneck 1.77054 -3.91344 -1.14899
upperneck -11.46 -5.34419 5.31673
head -3.87126 -3.0495 2.19188
rclavicle -5.06901e-015 -1.03368e-014
rhumerus -33.5066 -18.0793 -80.7911
rradius 27.9412
rwrist -0.505204
rhand -6.91983 -51.4921
rfingers 7.12502
rthumb 18.9479 -80.5892
lclavicle -5.06901e-015 -1.03368e-014
lhumerus -27.7317 3.90771 84.2256
lradius 19.0136
lwrist -6.9876
lhand -21.5887 -12.7672
lfingers 7.12502
lthumb 4.80593 17.1583
rfemur -26.0395 9.8628 17.1966
rtibia 9.59778
rfoot -19.6788 -7.54121
rtoes -40.3543
lfemur -24.6185 -9.50425 -17.3744
ltibia 7.47813
lfoot -8.29969 4.18745
ltoes -41.9961
34
root 9.08291 16.3312 9.33496 -153.123 -3.09422 -179.191
lowerback -30.0515 -1.64968 -5.1475
upperback -3.12441 -1.46055 -0.0913694
thorax 12.3555 -1.33607 2.04466
lowerneck 1.76139 -3.91328 -1.14283
upperneck -11.4485 -5.34433 5.30608
head -3.86577 -3.04892 2.18642
rclavicle -4.91992e-015 -9.54166e-015
rhumerus -33.4896 -18.1393 -80.8005
rradius 27.9857
rwrist -0.458694
rhand -6.89679 -51.2313
rfingers 7.12502
rthumb 18.9701 -80.3262
lclavicle -4.91992e-015 -9.54166e-015
lhumerus -27.6504 4.1416 84.1422
lradius 19.0696
lwrist -7.73911
lhand -21.234 -12.3836
lfingers 7.12502
lthumb 5.1484 17.5338
rfemur -26.0226 9.8951 17.2166
rtibia 9.58809
rfoot -19.698 -7.55681
rtoes -40.4245
lfemur -24.5903 -9.52506 -17.3439
ltibia 7.46479
lfoot -8.32357 4.21857
ltoes -41.915
35
root 9.08246 16.3316 9.33612 -153.188 -3.05105 -179.182
lowerback -29.9958 -1.6407 -5.13465
upperback -3.10163 -1.44807 -0.0965217
thorax 12.3561 -1.32722 2.03863
lowerneck 1.73511 -4.06009 -0.943878
upperneck -12.0292 -5.56768 5.42203
head -4.06196 -3.20339 2.22027
rclavicle -9.0944e-015 -2.54444e-014
rhumerus -33.4383 -18.2195 -80.8001
rradius 27.915
rwrist -0.39035
rhand -6.88158 -50.9123
rfingers 7.12502
rthumb 18.9847 -80.0058
lclavicle -9.0944e-015 -2.54444e-014
lhumerus -27.5943 4.25015 84.1219
lradius 19.1146
lwrist -8.12361
lhand -20.9489 -11.9906
lfingers 7.12502
lthumb 5.42371 17.9199
rfemur -25.9515 9.89295 17.2342
rtibia 9.56725
rfoot -19.664 -7.52244
rtoes -40.5785
lfemur -24.497 -9.51446 -17.3501
ltibia 7.4142
lfoot -8.3525 4.22431
ltoes -41.9227
36
root 9.08252 16.3322 9.33736 -153.263 -3.07008 -179.192
lowerback -29.9026 -1.67061 -5.16396
upperback -3.09455 -1.47818 -0.0839952
thorax 12.3264 -1.33967 2.05925
lowerneck 1.73363 -3.91201 -1.1078
upperneck -11.3773 -5.34018 5.28595
head -3.8366 -3.04469 2.16958
rclavicle -3.27995e-015 -8.74653e-015
rhumerus -33.4005 -18.099 -80.8421
rradius 27.834
rwrist -0.471282
rhand -6.86751 -51.016
rfingers 7.12502
rthumb 18.9982 -80.1081
lclavicle -3.27995e-015 -8.74653e-015
lhumerus -27.5994 4.29807 84.1591
lradius 19.1727
lwrist -8.08778
lhand -20.8128 -11.7705
lfingers 7.12502
lthumb 5.55505 18.1367
rfemur -25.8206 9.88468 17.2465
rtibia 9.48722
rfoot -19.5792 -7.51241
rtoes -40.4526
lfemur -24.4048 -9.48358 -17.3821
ltibia 7.40054
lfoot -8.32627 4.13361
ltoes -41.923
37
root 9.08166 16.3328 9.33877 -153.288 -3.04893 -179.205
lowerback -29.8734 -1.67575 -5.19014
upperback -3.10786 -1.48105 -0.0733151
thorax 12.2993 -1.34225 2.08462
lowerneck 1.80782 -4.08434 -0.954007
upperneck -11.955 -5.59323 5.40267
head -4.04887 -3.20989 2.21604
rclavicle -7.15625e-015 6.36111e-015
rhumerus -33.4427 -17.9612 -80.8547
rradius 27.8508
rwrist -0.575489
rhand -6.82134 -51.1386
rfingers 7.12502
rthumb 19.0426 -80.2264
lclavicle -7.15625e-015 6.36111e-015
lhumerus -27.6239 4.3426 84.1997
lradius 19.2111
lwrist -8.00221
lhand -20.7047 -11.509
lfingers 7.12502
lthumb 5.65946 18.3954
rfemur -25.7713 9.92799 17.2131
rtibia 9.41718
rfoot -19.5364 -7.53736
rtoes -40.348
lfemur -24.3888 -9.50265 -17.4015
ltibia 7.41775
lfoot -8.27302 4.18172
ltoes -41.7934
38
root 9.0796 16.3325 9.33964 -153.27 -2.9599 -179.233
lowerback -29.9526 -1.65651 -5.21476
upperback -3.09809 -1.44559 -0.0720691
thorax 12.3425 -1.32918 2.11028
lowerneck 1.82226 -3.91359 -1.13224
upperneck -11.3317 -5.3396 5.22501
head -3.83851 -3.03663 2.15476
rclavicle -1.06847e-014 -7.95139e-015
rhumerus -33.4655 -18.0324 -80.7897
rradius 27.861
rwrist -0.456497
rhand -6.80538 -50.8578
rfingers 7.12502
rthumb 19.058 -79.9441
lclavicle -1.06847e-014 -7.95139e-015
lhumerus -27.5944 4.30621 84.2735
lradius 19.2039
lwrist -7.91785
lhand -20.7185 -11.3223
lfingers 7.12502
lthumb 5.64615 18.5825
rfemur -25.8341 9.91783 17.1534
rtibia 9.45385
rfoot -19.5936 -7.49074
rtoes -40.6546
lfemur -24.3826 -9.57308 -17.4387
ltibia 7.36193
lfoot -8.21785 4.33618
ltoes -41.7577
39
root 9.07834 16.3322 9.33964 -153.278 -2.93714 -179.23
lowerback -30.0184 -1.64865 -5.20548
upperback -3.07187 -1.43254 -0.0645209
thorax 12.4003 -1.32343 2.11643
lowerneck 1.85594 -4.11036 -0.989578
upperneck -11.917 -5.62831 5.34574
head -4.04383 -3.21958 2.2044
rclavicle -7.40473e-015 1.35174e-014
rhumerus -33.4646 -18.1675 -80.7257
rradius 27.851
rwrist -0.276933
rhand -6.88241 -50.7227
rfingers 7.12502
rthumb 18.9839 -79.8162
lclavicle -7.40473e-015 1.35174e-014
lhumerus -27.5476 4.32533 84.3219
lradius 19.1769
lwrist -7.91146
lhand -20.8942 -11.525
lfingers 7.12502
lthumb 5.47649 18.3843
rfemur -25.8471 9.87576 17.1656
rtibia 9.49383
rfoot -19.6422 -7.44224
rtoes -40.9284
lfemur -24.3428 -9.56848 -17.4563
ltibia 7.31439
lfoot -8.15554 4.35903
ltoes -41.7974
40
root 9.0785 16.3317 9.34142 -153.275 -2.90991 -179.218
lowerback -30.0157 -1.64442 -5.20761
upperback -3.09128 -1.43181 -0.0576726
thorax 12.3771 -1.32419 2.12527
lowerneck 1.88983 -4.23723 -0.801346
upperneck -12.5791 -5.82453 5.52642
head -4.28247 -3.36852 2.2688
rclavicle 7.05686e-015 -1.35174e-014
rhumerus -33.488 -18.1684 -80.7096
rradius 27.8445
rwrist -0.254512
rhand -6.91843 -50.962
rfingers 7.12502
rthumb 18.9493 -80.059
lclavicle 7.05686e-015 -1.35174e-014
lhumerus -27.5452 4.46317 84.2988
lradius 19.1257
lwrist -8.01378
lhand -20.9378 -11.7523
lfingers 7.12502
lthumb 5.43438 18.158
rfemur -25.8378 9.85951 17.1711
rtibia 9.45327
rfoot -19.6058 -7.37562
rtoes -40.8814
lfemur -24.37 -9.53142 -17.451
ltibia 7.35985
lfoot -8.17619 4.36594
ltoes -41.6714
